{"title":"All hail king Julien S01E06 PL.PAL.Xvid.avi","uid":13709375,"size":429250214,"categoryP":"video","categoryS":"tv_shows","magnet":"?xt=urn:btih:195e3bc5d9fd3c21a434b806c7d74be3c1461618&amp;dn=All+hail+king+Julien+S01E06+PL.PAL.Xvid.avi&amp;tr=udp%3A%2F%2Ftracker.leechers-paradise.org%3A6969&amp;tr=udp%3A%2F%2Fzer0day.ch%3A1337&amp;tr=udp%3A%2F%2Fopen.demonii.com%3A1337&amp;tr=udp%3A%2F%2Ftracker.coppersurfer.tk%3A6969&amp;tr=udp%3A%2F%2Fexodus.desync.com%3A6969","seeders":1,"leechers":0,"uploader":"Jan100000","files":1,"time":1456857563,"description":"Video\r\nID                          : 0\r\nFormat                      : MPEG-4 Visual\r\nFormat profile              : Advanced   \r\nFormat settings, BVOP       : 2\r\nFormat settings, QPel       : Yes\r\nFormat settings, GMC        : No warppoints\r\nFormat settings, Matrix     : Default (H.263)\r\nMuxing mode                 : Packed bitstream\r\nCodec ID                    : XVID\r\nCodec ID/Hint               : XviD\r\nDuration                    : 23mn 6s\r\nBit rate                    : 2 274 Kbps\r\nWidth                       : 720 pixels\r\nHeight                      : 540 pixels\r\nDisplay aspect ratio        : 4:3\r\nFrame rate                  : 23.976 fps\r\nColor space                 : YUV\r\nChroma subsampling          : 4:2:0\r\nBit depth                   : 8 bits\r\nScan type                   : Progressive\r\nCompression mode            : Lossy\r\nBits/(Pixel*Frame)          : 0.244\r\nStream size                 : 376 MiB (92%)\r\nWriting library             : XviD 73\r\n\r\nAudio\r\nID                          : 1\r\nFormat                      : AAC\r\nFormat/Info                 : Advanced Audio Codec\r\nFormat profile              : LC\r\nCodec ID                    : FF\r\nDuration                    : 23mn 6s\r\nBit rate                    : 192 Kbps\r\nChannel(s)                  : 2 channels\r\nChannel positions           : Front: L R\r\nSampling rate               : 48.0 KHz\r\nCompression mode            : Lossy\r\nStream size                 : 31.3 MiB (8%)\r\nAlignment                   : Split accross interleaves\r\nInterleave, duration        : 21 ms (0.51 video frame)","torrent":{"xt":"urn:btih:195e3bc5d9fd3c21a434b806c7d74be3c1461618","amp;dn":"All+hail+king+Julien+S01E06+PL.PAL.Xvid.avi","amp;tr":["udp%3A%2F%2Ftracker.leechers-paradise.org%3A6969","udp%3A%2F%2Fzer0day.ch%3A1337","udp%3A%2F%2Fopen.demonii.com%3A1337","udp%3A%2F%2Ftracker.coppersurfer.tk%3A6969","udp%3A%2F%2Fexodus.desync.com%3A6969"],"infoHash":"195e3bc5d9fd3c21a434b806c7d74be3c1461618","infoHashBuffer":{"type":"Buffer","data":[25,94,59,197,217,253,60,33,164,52,184,6,199,215,75,227,193,70,22,24]},"announce":[],"urlList":[]}}